<svg xmlns="http://www.w3.org/2000/svg" width="24" height="24" viewBox="0 0 24 24" fill="none" stroke="#7e5efc" stroke-width="2" stroke-linecap="round" stroke-linejoin="round"><path d="M18 16.016V14a2 2 0 0 0-2-2h-1.886"></path><path d="M8 14H6a2 2 0 0 0-2 2v2.016"></path><path d="M4 8.016V10a2 2 0 0 0 2 2h12a2 2 0 0 0 2-2V8.016"></path><path d="M12 16v4"></path><path d="M17 22H7"></path><path d="M22 9V7c0-1.1-.9-2-2-2h-3"></path><path d="M2 9V7c0-1.1.9-2 2-2h3"></path><path d="M10 5 l2-2 2 2"></path></svg>
